<?xml version="1.0" standalone="no"?>
<!DOCTYPE svg PUBLIC "-//W3C//DTD SVG 20010904//EN"
 "http://www.w3.org/TR/2001/REC-SVG-20010904/DTD/svg10.dtd">
<svg version="1.0" xmlns="http://www.w3.org/2000/svg"
 width="2095.000000pt" height="2095.000000pt" viewBox="0 0 2095.000000 2095.000000"
 preserveAspectRatio="xMidYMid meet">

<g transform="translate(0.000000,2095.000000) scale(0.100000,-0.100000)"
fill="#BDBD05" stroke="none">
<path d="M9980 19110 c-135 -4 -321 -15 -415 -23 -93 -9 -210 -19 -260 -22
-228 -17 -493 -61 -1010 -170 -93 -20 -224 -47 -290 -61 -66 -14 -137 -30
-157 -36 l-38 -11 0 -2588 0 -2589 83 31 c478 177 815 265 1335 346 171 27
189 28 557 27 307 0 403 -4 500 -18 202 -29 306 -52 410 -91 113 -42 291 -128
332 -161 l27 -21 -12 -374 c-26 -773 -33 -965 -38 -996 l-5 -33 -62 0 c-34 0
-125 6 -202 14 -464 48 -576 48 -1178 1 -432 -34 -1060 -147 -1392 -250 -178
-55 -307 -102 -331 -120 -18 -13 -19 -45 -22 -839 -1 -454 1 -839 5 -856 l8
-30 250 101 c334 134 564 219 710 263 294 87 620 153 975 197 251 30 656 30
890 0 248 -33 394 -58 578 -97 453 -97 638 -163 1267 -449 229 -104 212 -99
220 -67 4 15 9 1094 12 2399 l5 2372 -113 57 c-278 139 -766 324 -1054 399
-116 31 -325 74 -503 105 -170 30 -384 42 -797 47 -236 2 -495 0 -575 -5 -80
-4 -150 -7 -156 -4 -7 2 -14 20 -18 40 -9 62 -19 1111 -12 1214 l8 97 51 10
c57 11 257 34 467 53 172 15 814 15 1020 -1 420 -33 1021 -156 1528 -313 113
-36 135 -40 143 -27 10 13 6 2166 -4 2175 -11 11 -461 117 -647 153 -712 135
-1298 177 -2090 151z"/>
<path d="M6450 18386 c-320 -162 -467 -252 -685 -420 -305 -235 -547 -448
-874 -771 -451 -445 -698 -724 -1082 -1225 -291 -379 -630 -891 -819 -1240
-72 -133 -72 -103 -4 -379 71 -291 177 -558 380 -964 111 -221 172 -330 256
-454 64 -94 133 -171 145 -159 3 2 11 53 18 113 27 216 35 254 76 380 113 350
234 615 467 1028 234 415 398 659 606 900 88 102 220 225 241 225 20 0 25
-128 25 -689 1 -1036 18 -1728 85 -3375 l15 -368 39 -47 c136 -161 520 -484
731 -613 185 -113 503 -288 549 -303 l24 -7 -7 4193 c-4 2307 -9 4206 -12
4222 -3 15 -11 27 -17 27 -7 0 -77 -33 -157 -74z"/>
<path d="M13816 18348 c-7 -143 -12 -3339 -8 -6161 l2 -2167 33 13 c17 8 113
59 212 114 99 55 209 115 245 133 100 50 362 238 540 386 274 230 325 272 354
294 217 169 409 351 628 591 305 336 549 644 730 919 200 305 498 849 644
1178 155 347 212 505 269 747 52 222 53 200 -5 309 -112 214 -352 601 -515
831 -477 674 -805 1066 -1329 1590 -532 532 -982 904 -1350 1115 -104 59 -423
220 -437 220 -4 0 -10 -51 -13 -112z m1536 -2985 c183 -160 551 -662 689 -939
39 -77 40 -83 29 -124 -28 -105 -298 -582 -452 -799 -85 -119 -233 -304 -309
-385 -90 -97 -93 -91 -84 174 4 113 10 633 14 1156 4 522 11 956 15 962 13 21
31 13 98 -45z"/>
<path d="M2166 13468 c-113 -352 -120 -377 -201 -743 -99 -448 -134 -655 -174
-1030 -36 -340 -64 -833 -56 -983 3 -48 10 -202 16 -342 11 -260 50 -660 95
-965 28 -194 80 -458 94 -485 9 -17 67 -18 1067 -25 1005 -8 3461 0 3472 10 2
3 -4 12 -15 20 -17 13 -337 198 -479 277 -49 27 -304 195 -560 368 -114 77
-502 381 -625 489 -399 351 -776 739 -1071 1101 -455 562 -781 1072 -1109
1735 -92 187 -203 428 -245 535 -85 215 -111 270 -125 270 -5 0 -43 -105 -84
-232z"/>
<path d="M18172 13674 c-6 -11 -34 -78 -62 -149 -108 -271 -336 -753 -476
-1008 -157 -284 -430 -713 -617 -972 -357 -493 -897 -1080 -1357 -1475 -385
-331 -922 -714 -1325 -943 -299 -170 -365 -209 -365 -216 0 -19 3106 -27 4120
-12 l405 6 16 50 c27 80 96 520 123 775 53 498 60 626 60 1035 0 587 -38 1019
-138 1580 -21 114 -121 569 -156 705 -51 199 -179 592 -205 627 -11 15 -13 15
-23 -3z"/>
<path d="M9885 9363 c-173 -16 -376 -53 -402 -75 -8 -6 -13 -89 -15 -283 -3
-236 -5 -277 -19 -290 -9 -9 -81 -36 -160 -59 -228 -68 -428 -151 -627 -260
-65 -36 -131 -66 -145 -66 -20 0 -70 43 -220 190 -107 105 -203 190 -212 190
-29 0 -117 -59 -275 -184 -95 -75 -438 -413 -534 -526 -77 -90 -205 -259 -225
-298 -17 -32 -12 -38 174 -232 86 -89 167 -177 181 -195 l24 -32 -114 -234
c-108 -221 -155 -340 -225 -574 -46 -154 -14 -140 -328 -143 -147 -1 -278 -5
-290 -7 -14 -3 -23 -13 -23 -24 0 -11 -14 -91 -32 -178 l-31 -158 -1 -385 0
-385 31 -162 c17 -89 36 -170 42 -181 14 -26 80 -32 342 -32 114 0 215 -3 224
-6 23 -9 38 -43 84 -198 57 -188 103 -299 222 -540 92 -186 100 -206 87 -225
-8 -11 -96 -106 -196 -211 -100 -104 -182 -196 -182 -203 0 -56 248 -354 506
-608 187 -183 292 -274 433 -372 l94 -66 26 19 c14 10 78 69 141 131 197 191
251 239 272 239 11 0 100 -40 199 -89 200 -100 436 -196 579 -236 141 -39 160
-47 166 -70 2 -11 8 -142 12 -292 6 -201 11 -275 21 -287 8 -9 29 -16 51 -16
20 0 117 -11 216 -25 153 -22 218 -26 459 -27 243 -1 300 2 430 21 83 13 175
25 205 27 81 7 97 12 106 31 4 10 10 143 13 295 6 262 7 278 26 292 11 8 79
31 150 51 163 47 340 119 575 235 101 49 194 90 206 90 16 0 83 -58 224 -196
l201 -195 35 20 c44 26 172 123 284 215 144 118 496 479 597 612 51 67 102
137 113 156 l20 35 -27 35 c-16 19 -92 102 -170 184 -175 183 -196 211 -188
244 4 14 32 72 64 130 104 188 209 440 257 619 30 114 56 162 94 172 14 4 113
8 220 9 107 1 224 5 260 9 64 6 65 7 77 42 6 19 26 120 44 225 l32 189 -11
365 c-10 337 -13 376 -40 508 -16 78 -32 145 -36 150 -4 4 -131 9 -281 12
-250 5 -275 7 -294 24 -13 12 -44 89 -85 215 -65 201 -151 407 -235 566 -62
117 -74 151 -60 176 5 11 93 105 195 210 101 105 184 195 184 199 0 12 -101
151 -208 285 -188 238 -631 648 -800 743 l-44 25 -116 -115 c-203 -198 -291
-278 -308 -278 -9 0 -110 46 -223 103 -195 97 -392 175 -611 241 -47 14 -92
30 -100 36 -13 8 -16 56 -21 292 -4 156 -7 284 -8 286 -8 17 -156 46 -346 67
-119 14 -610 19 -730 8z m469 -1884 c367 -27 726 -156 1010 -361 146 -105 373
-341 471 -488 130 -196 244 -461 285 -658 26 -129 50 -336 50 -434 0 -420
-156 -876 -408 -1193 -131 -165 -325 -343 -492 -451 -84 -54 -325 -171 -418
-203 -98 -33 -241 -68 -333 -82 -118 -17 -497 -14 -629 5 -151 22 -381 96
-531 172 -516 259 -891 722 -1029 1268 -60 235 -73 457 -44 722 19 177 46 289
108 448 149 384 399 702 727 922 229 154 444 245 711 299 229 46 304 51 522
34z"/>
<path d="M2227 8073 l-67 -4 6 -27 c16 -63 127 -379 189 -537 139 -355 363
-834 522 -1112 l75 -133 912 -2 c1171 -4 1495 -2 1503 5 3 4 25 105 49 224 41
207 107 462 139 540 8 20 22 63 31 97 47 180 284 702 415 915 12 18 12 23 -1
31 -14 9 -3604 11 -3773 3z"/>
<path d="M14488 8073 l-58 -4 123 -242 c266 -521 392 -896 508 -1513 l10 -52
463 -7 c672 -11 1915 -2 1943 13 70 39 444 796 615 1246 61 162 143 399 168
488 l18 66 -21 6 c-23 6 -3671 5 -3769 -1z"/>
<path d="M3510 5422 c0 -21 325 -426 480 -597 132 -146 600 -614 749 -748 212
-192 438 -371 741 -588 189 -135 369 -252 412 -268 26 -10 27 -9 18 13 -4 13
-33 72 -63 132 -30 60 -67 138 -82 174 -15 36 -43 99 -61 140 -91 207 -274
807 -274 898 0 15 -7 52 -15 82 -27 95 -55 308 -66 500 -6 102 -13 204 -15
228 l-5 42 -910 0 c-500 0 -909 -3 -909 -8z"/>
<path d="M15128 5423 c-15 -4 -18 -16 -18 -71 0 -168 -49 -559 -101 -804 -89
-420 -213 -777 -413 -1187 -36 -74 -63 -138 -60 -143 6 -10 29 3 209 120 271
176 712 515 965 742 297 266 759 747 979 1019 126 156 241 311 241 325 0 7
-1776 6 -1802 -1z"/>
</g>
</svg>
