<?xml version="1.0" standalone="no"?>
<!DOCTYPE svg PUBLIC "-//W3C//DTD SVG 20010904//EN"
 "http://www.w3.org/TR/2001/REC-SVG-20010904/DTD/svg10.dtd">
<svg version="1.0" xmlns="http://www.w3.org/2000/svg"
 width="400.000000pt" height="400.000000pt" viewBox="0 0 400.000000 400.000000"
 preserveAspectRatio="xMidYMid meet">

<g transform="translate(0.000000,400.000000) scale(0.100000,-0.100000)"
fill="#37404c" stroke="none">
<path d="M2160 3961 c-353 -137 -550 -393 -550 -716 0 -292 139 -507 413 -641
31 -16 57 -31 57 -34 0 -27 -50 -146 -62 -148 -22 -4 -84 52 -113 102 -13 23
-31 66 -38 96 -8 30 -18 55 -23 54 -17 -1 -73 -85 -91 -134 -10 -28 -20 -50
-24 -50 -3 0 -27 31 -53 69 -84 124 -187 201 -285 214 -137 18 -302 -60 -402
-190 -35 -45 -47 -53 -74 -53 -131 0 -240 -53 -361 -177 -151 -154 -232 -170
-352 -68 l-30 25 5 -42 c11 -100 32 -149 87 -203 82 -82 185 -104 336 -70 186
41 256 49 301 36 60 -18 114 -75 124 -129 l7 -43 36 8 c73 15 302 6 394 -16
210 -50 361 -133 508 -280 124 -125 161 -175 221 -296 173 -349 124 -705 -152
-1119 -45 -66 -89 -129 -97 -138 -14 -17 -11 -18 44 -18 142 0 379 167 562
398 44 55 72 82 86 82 40 0 176 49 258 92 65 33 105 65 184 143 91 91 106 111
157 214 31 63 57 122 57 132 0 19 3 20 160 44 173 27 301 53 315 65 21 17 55
115 55 157 0 27 -8 43 -33 67 -28 26 -33 38 -33 73 1 37 5 45 44 73 66 47 84
97 84 229 -1 375 -136 781 -366 1101 -77 107 -226 256 -348 347 -103 78 -287
188 -332 199 -26 6 -27 5 -18 -13 17 -30 22 -74 12 -92 -4 -9 -23 -24 -42 -33
-57 -29 -190 -88 -199 -88 -17 0 -31 76 -27 149 8 125 72 242 212 389 32 34
53 62 45 62 -48 0 -199 -48 -288 -91 -87 -43 -116 -63 -186 -132 -89 -89 -142
-174 -170 -271 -16 -56 -18 -59 -32 -40 -125 163 -55 429 179 680 l60 64 -63
-1 c-48 -1 -87 -10 -159 -38z m-16 -103 c-4 -7 -20 -29 -34 -48 -80 -103 -124
-242 -118 -372 4 -75 9 -96 41 -161 44 -88 137 -182 244 -246 92 -54 265 -126
392 -162 153 -43 213 -83 263 -179 31 -61 33 -195 3 -255 -103 -208 -437 -221
-572 -21 -46 67 -43 92 5 40 20 -22 42 -49 49 -60 9 -15 9 -10 2 25 -5 24 -14
51 -19 61 -22 41 -94 88 -254 165 -243 117 -314 174 -383 308 -61 121 -83 331
-48 455 50 172 185 330 369 428 70 38 70 38 60 22z m426 -242 c0 -2 -16 -29
-35 -61 -51 -86 -69 -148 -69 -240 0 -57 6 -95 21 -132 l20 -51 -51 -36 c-29
-20 -56 -36 -60 -36 -4 0 -39 20 -77 45 -78 51 -80 57 -54 160 20 77 68 166
122 226 55 60 183 148 183 125z m433 -376 c343 -220 582 -534 710 -935 40
-123 77 -293 77 -349 l0 -37 -41 23 c-78 44 -95 67 -114 153 -10 44 -21 84
-25 88 -5 6 -426 97 -448 97 -4 0 -16 -19 -27 -43 -31 -66 -127 -154 -213
-195 l-74 -35 6 -52 c9 -79 53 -220 97 -314 21 -46 39 -88 39 -93 0 -6 -31
-55 -70 -109 -38 -55 -70 -102 -70 -105 0 -3 8 -3 18 -1 9 3 34 8 55 12 l37 6
-15 -33 c-8 -18 -19 -52 -25 -75 -6 -24 -13 -43 -16 -43 -3 0 -31 20 -62 44
-76 58 -178 167 -231 246 -48 74 -145 267 -190 382 -41 105 -115 251 -161 318
-21 30 -65 83 -99 116 l-62 61 27 84 c14 46 29 88 34 92 4 4 10 -17 13 -48 11
-111 96 -242 204 -317 62 -42 164 -78 246 -84 192 -17 376 84 457 249 78 159
39 357 -97 488 -91 88 -158 120 -306 144 -99 15 -169 36 -174 51 -5 15 120 88
251 149 66 30 124 61 128 67 5 7 13 21 19 31 5 9 13 17 17 17 4 0 42 -23 85
-50z m15 -554 c71 -133 44 -305 -65 -414 -199 -199 -555 -135 -683 123 -32 65
-52 154 -32 141 7 -4 12 -15 12 -24 0 -36 61 -144 106 -188 82 -79 179 -117
299 -115 142 2 271 77 333 195 23 44 27 63 27 141 0 81 -3 97 -32 159 -18 37
-33 70 -33 73 0 10 49 -55 68 -91z m-1581 -20 c88 -41 131 -94 258 -311 65
-111 129 -185 180 -209 52 -25 58 -19 26 22 -64 80 -105 215 -87 287 l7 27 29
-45 c31 -49 89 -89 156 -106 80 -21 182 -136 263 -298 22 -45 68 -148 101
-229 34 -80 72 -169 87 -198 38 -76 123 -203 180 -270 l51 -59 -51 -52 -50
-52 -42 51 c-22 28 -108 104 -191 168 -159 125 -207 173 -250 252 -45 82 -45
205 1 317 6 15 -3 16 -78 12 -80 -5 -90 -4 -150 25 -100 46 -174 122 -256 262
l-32 55 6 -60 c14 -125 80 -236 180 -304 60 -41 154 -71 224 -71 26 0 32 -3
27 -15 -3 -9 -9 -51 -12 -95 l-7 -80 -32 29 c-53 47 -213 141 -284 168 -36 13
-107 36 -157 51 l-92 27 -53 79 c-62 92 -147 162 -236 196 -88 34 -243 39
-353 11 -47 -12 -91 -27 -98 -35 -11 -11 -5 -11 40 1 76 20 235 12 309 -16 58
-22 125 -63 169 -103 27 -24 105 -118 99 -118 -2 0 -57 -3 -121 -5 l-116 -5
-11 33 c-16 46 -64 101 -108 122 -54 26 -146 22 -306 -14 -167 -38 -241 -40
-300 -9 l-42 22 55 7 c80 9 123 36 240 151 135 133 173 153 295 153 81 0 103
-4 211 -42 136 -48 188 -53 227 -22 34 26 52 90 38 132 -6 16 -9 32 -7 34 5 5
83 -72 114 -112 l22 -30 -6 35 c-10 53 -38 103 -83 143 -49 44 -96 65 -168 74
-58 6 -59 16 -3 31 63 18 131 14 187 -12z m-227 -117 c24 -11 53 -27 62 -36
19 -17 24 -58 9 -68 -9 -5 -249 70 -260 81 -8 8 85 44 114 44 17 0 50 -10 75
-21z m2163 -362 l49 -12 -22 -27 c-12 -16 -27 -28 -33 -27 -7 0 -27 18 -46 40
-38 44 -33 46 52 26z m-126 -37 c28 -16 79 -55 112 -86 61 -56 82 -55 44 2
-22 34 -7 44 73 44 l60 0 33 -68 c33 -67 35 -70 116 -111 105 -53 113 -60 117
-96 4 -43 -28 -45 -67 -5 -29 30 -29 30 -143 30 l-114 0 7 27 c8 33 21 43 55
43 48 1 54 17 11 28 -97 24 -193 -3 -236 -66 -14 -20 -23 -38 -21 -40 2 -2 26
8 52 22 49 26 74 32 74 19 -1 -39 -16 -54 -79 -78 -99 -38 -164 -78 -241 -151
l-69 -65 -19 38 c-21 40 -74 224 -67 231 8 9 157 -70 181 -95 31 -33 38 -26
24 26 -9 35 -22 50 -75 88 -35 25 -66 52 -70 60 -3 9 13 31 43 58 26 23 65 72
86 109 21 36 44 66 50 66 6 0 34 -14 63 -30z m450 -360 c8 -11 31 -23 52 -26
59 -9 65 -16 57 -67 -7 -49 -18 -62 -98 -121 -54 -40 -60 -34 -22 24 28 42 38
48 50 28 10 -15 34 19 34 48 0 52 -126 46 -205 -9 -171 -119 -271 -279 -366
-582 -21 -70 -65 -160 -104 -213 -20 -29 -38 -52 -40 -52 -2 0 2 19 10 43 52
159 65 203 62 210 -1 4 -24 -36 -52 -90 -51 -101 -114 -200 -171 -266 -33 -40
-95 -90 -101 -83 -2 2 7 20 21 40 40 59 94 211 122 340 59 279 101 388 176
465 l43 44 -30 -7 c-16 -4 -55 -23 -85 -41 -30 -18 -57 -32 -59 -30 -8 8 84
118 148 177 147 134 323 204 485 192 45 -3 63 -9 73 -24z m-126 -213 c-9 -23
-46 -45 -57 -34 -3 2 9 19 26 37 34 37 45 36 31 -3z m9 -71 c0 -7 -6 -18 -12
-23 -16 -12 -117 -37 -124 -31 -2 3 4 15 13 27 27 33 123 54 123 27z m90 -75
c0 -17 -29 -39 -60 -46 -49 -11 -35 -22 38 -29 87 -9 96 -15 88 -57 -3 -19
-10 -40 -15 -48 -9 -14 -408 -87 -418 -77 -5 5 41 111 74 171 22 39 24 41 130
67 116 28 163 34 163 19z m-1289 -157 c101 -71 169 -131 169 -150 0 -11 -38
-104 -46 -113 -2 -2 -25 16 -52 41 -26 24 -59 52 -73 61 -15 10 -31 35 -39 60
-7 23 -25 70 -40 105 -16 34 -25 62 -21 62 4 0 50 -30 102 -66z m364 -101
c-13 -89 -38 -211 -43 -220 -4 -6 -25 -20 -47 -32 -22 -11 -50 -28 -61 -37
-21 -14 -23 -13 -43 29 -13 26 -19 52 -15 63 17 46 98 154 140 187 57 45 75
47 69 10z m121 -34 c26 -16 33 -26 29 -42 -42 -195 -85 -319 -141 -410 -28
-45 -103 -127 -116 -127 -4 0 10 35 31 78 70 141 114 278 142 445 7 42 15 77
17 77 3 0 20 -9 38 -21z m-402 -210 c36 -39 66 -78 66 -86 0 -15 -67 -103 -79
-103 -3 0 -18 19 -32 43 -22 34 -28 58 -32 130 -2 48 -1 87 3 87 5 0 38 -32
74 -71z m203 -111 c-3 -7 -17 -44 -32 -83 -33 -82 -37 -87 -91 -108 l-42 -16
-12 45 -13 45 39 40 c55 58 166 113 151 77z m-260 -130 c11 -13 29 -39 41 -59
l21 -35 -44 -44 -45 -44 -21 21 c-21 20 -21 21 -2 102 10 44 20 81 24 81 3 0
15 -10 26 -22z m133 -137 c0 -16 -94 -151 -105 -151 -6 0 -17 16 -24 36 -16
44 -3 61 72 99 58 28 57 28 57 16z m-175 -123 c19 -29 35 -57 35 -63 -1 -14
-47 -65 -59 -65 -5 0 -13 10 -17 23 -3 12 -16 35 -27 50 -19 28 -19 30 -2 68
10 21 22 39 26 39 5 0 24 -24 44 -52z m-87 -121 c28 -42 28 -51 -4 -76 -34
-27 -36 -26 -55 5 -15 25 -15 29 5 65 12 21 23 39 26 39 3 0 15 -15 28 -33z
m-90 -128 c2 -13 -78 -73 -86 -64 -2 2 11 22 29 45 32 40 52 47 57 19z"/>
<path d="M3133 3054 c214 -297 336 -543 286 -575 -8 -5 -52 -9 -99 -9 -61 0
-81 -3 -73 -11 11 -11 292 -59 305 -52 12 6 -22 104 -69 202 -55 113 -178 287
-292 413 -108 120 -129 132 -58 32z"/>
<path d="M2383 2087 c3 -6 38 -91 77 -187 78 -193 150 -333 215 -425 40 -56
105 -126 105 -113 0 3 -18 43 -41 88 -79 161 -132 329 -150 475 -11 92 -18
105 -56 105 -12 0 -52 16 -88 35 -37 19 -65 29 -62 22z"/>
</g>
</svg>
